{"title":"London Spy S01E02 x264 RB58.mp4","uid":12775542,"size":661338372,"categoryP":"video","categoryS":"tv_shows","magnet":"?xt=urn:btih:c0456ef5f763f451c1a00107f03f00374ecda661&amp;dn=London+Spy+S01E02+x264+RB58.mp4&amp;tr=udp%3A%2F%2Ftracker.leechers-paradise.org%3A6969&amp;tr=udp%3A%2F%2Fzer0day.ch%3A1337&amp;tr=udp%3A%2F%2Fopen.demonii.com%3A1337&amp;tr=udp%3A%2F%2Ftracker.coppersurfer.tk%3A6969&amp;tr=udp%3A%2F%2Fexodus.desync.com%3A6969","seeders":0,"leechers":1,"uploader":"RedBaron58","files":1,"time":1447723385,"description":"London Spy S01E02 x264 mp4\r\n \nhttp://www.imdb.com/title/tt4108134/\r\n\r\nTrailer:\r\n\r\n\r\nPlease be patient My intial upload speed is limited.\r\nThank you for your kind comments and feedback on my other torrents, your feedback is welcome.\r\n\r\n\r\nAbout the Episode:\r\nAfter Danny is accused by the papers of being involved in his lover's death, he is invited to meet \r\nAlex's parents, who he had been told were dead and the puzzle deepens when he arrives at their \r\ncountry home and discovers them to be unemotional. \r\nDanny starts to realise that he knew almost nothing about his partner's true identity and catches \r\na glimpse of just how deep the conspiracy around his death might go, orchestrated by formidable \r\nand mysterious figure of Frances (Charlotte Rampling).\r\n  \r\nStarring Ben Whishaw, Edward Holcroft, Jim Broadbent and Samantha Spiro\r\n\r\n\r\nI hope you enjoy.\r\n\r\n\r\nTechnical:\r\n\r\nGeneral\r\nComplete name                            : H:London Spy S01E02 x264 RB58.mp4\r\nFormat                                   : MPEG-4\r\nFormat profile                           : Base Media\r\nCodec ID                                 : isom\r\nFile size                                : 631 MiB\r\nDuration                                 : 57mn 59s\r\nOverall bit rate                         : 1 520 Kbps\r\nWriting application                      : Lavf54.63.104\r\n\r\nVideo\r\nID                                       : 1\r\nFormat                                   : AVC\r\nFormat/Info                              : Advanced Video Codec\r\nFormat profile                           :   \r\nFormat settings, CABAC                   : Yes\r\nFormat settings, ReFrames                : 4 frames\r\nCodec ID                                 : avc1\r\nCodec ID/Info                            : Advanced Video Coding\r\nDuration                                 : 57mn 59s\r\nBit rate                                 : 1 400 Kbps\r\nWidth                                    : 832 pixels\r\nHeight                                   : 468 pixels\r\nDisplay aspect ratio                     : 16:9\r\nFrame rate mode                          : Constant\r\nFrame rate                               : 25.000 fps\r\nColor space                              : YUV\r\nChroma subsampling                       : 4:2:0\r\nBit depth                                : 8 bits\r\nScan type                                : Progressive\r\nBits/(Pixel*Frame)                       : 0.144\r\nStream size                              : 581 MiB (92%)\r\nWriting library                          : x264 core 123 r2189 35cf912\r\nEncoding settings                        : cabac=1 / ref=3 / deblock=1:0:0\r\n\r\nAudio\r\nID                                       : 2\r\nFormat                                   : AAC\r\nFormat/Info                              : Advanced Audio Codec\r\nFormat profile                           : LC\r\nCodec ID                                 : 40\r\nDuration                                 : 57mn 59s\r\nBit rate mode                            : Constant\r\nBit rate                                 : 112 Kbps\r\nChannel(s)                               : 2 channels\r\nChannel positions                        : Front: L R\r\nSampling rate                            : 48.0 KHz\r\nCompression mode                         : Lossy\r\nStream size                              : 46.5 MiB (7%)","torrent":{"xt":"urn:btih:c0456ef5f763f451c1a00107f03f00374ecda661","amp;dn":"London+Spy+S01E02+x264+RB58.mp4","amp;tr":["udp%3A%2F%2Ftracker.leechers-paradise.org%3A6969","udp%3A%2F%2Fzer0day.ch%3A1337","udp%3A%2F%2Fopen.demonii.com%3A1337","udp%3A%2F%2Ftracker.coppersurfer.tk%3A6969","udp%3A%2F%2Fexodus.desync.com%3A6969"],"infoHash":"c0456ef5f763f451c1a00107f03f00374ecda661","infoHashBuffer":{"type":"Buffer","data":[192,69,110,245,247,99,244,81,193,160,1,7,240,63,0,55,78,205,166,97]},"announce":[],"urlList":[]}}